<?xml version="1.0" encoding="UTF-8" standalone="no"?>
<svg
   height="24"
   viewBox="0 -960 1060 1060"
   width="24"
   version="1.1"
   id="svg1"
   sodipodi:docname="face_3_FILL1_wght400_GRAD0_opsz24.svg"
   inkscape:version="1.3.2 (091e20e, 2023-11-25, custom)"
   xmlns:inkscape="http://www.inkscape.org/namespaces/inkscape"
   xmlns:sodipodi="http://sodipodi.sourceforge.net/DTD/sodipodi-0.dtd"
   xmlns="http://www.w3.org/2000/svg"
   xmlns:svg="http://www.w3.org/2000/svg">
  <defs
     id="defs1" />
  <sodipodi:namedview
     id="namedview1"
     pagecolor="#ffffff"
     bordercolor="#000000"
     borderopacity="0.25"
     inkscape:showpageshadow="2"
     inkscape:pageopacity="0.0"
     inkscape:pagecheckerboard="0"
     inkscape:deskcolor="#d1d1d1"
     showgrid="false"
     inkscape:zoom="32.375"
     inkscape:cx="12"
     inkscape:cy="12"
     inkscape:window-width="1920"
     inkscape:window-height="991"
     inkscape:window-x="-9"
     inkscape:window-y="-9"
     inkscape:window-maximized="1"
     inkscape:current-layer="svg1" />
  <path
     d="m 547.52896,-206.71762 q 117.55136,0 199.13552,-82.02278 81.58415,-82.02278 81.58415,-198.69689 0,-27.19472 -4.38625,-52.19631 -4.38624,-25.0016 -14.03598,-48.68732 -23.68572,14.91323 -50.00319,22.80847 -26.31747,7.89524 -54.38944,7.89524 -47.37144,0 -89.04076,-21.4926 -41.66933,-21.4926 -68.86405,-60.9688 -27.19472,39.4762 -68.86404,60.9688 -41.66933,21.4926 -89.04077,21.4926 -28.07197,0 -54.38944,-7.89524 -26.31747,-7.89524 -50.00319,-22.80847 -9.64974,23.68572 -14.03598,48.68732 -4.38625,25.00159 -4.38625,52.19631 0,116.67411 82.02278,198.69689 82.02278,82.02278 198.69689,82.02278 z M 442.25909,-408.48488 q 18.42222,0 31.14233,-12.72011 12.72011,-12.72011 12.72011,-31.14234 0,-18.42223 -12.72011,-31.14234 -12.72011,-12.72011 -31.14233,-12.72011 -18.42223,0 -31.14234,12.72011 -12.72011,12.72011 -12.72011,31.14234 0,18.42223 12.72011,31.14234 12.72011,12.72011 31.14234,12.72011 z m 210.53975,0 q 18.42223,0 31.14234,-12.72011 12.72011,-12.72011 12.72011,-31.14234 0,-18.42223 -12.72011,-31.14234 -12.72011,-12.72011 -31.14234,-12.72011 -18.42223,0 -31.14234,12.72011 -12.72011,12.72011 -12.72011,31.14234 0,18.42223 12.72011,31.14234 12.72011,12.72011 31.14234,12.72011 z M 203.64737,-66.357786 q -30.70371,0 -51.75769,-22.808474 -21.05398,-22.80847 -18.42223,-53.51219 l 31.58096,-346.51334 q 7.018,-73.68891 39.91483,-137.72809 32.89684,-64.03917 84.2159,-110.97199 51.31907,-46.93282 117.55136,-73.68891 66.2323,-26.75609 140.79846,-26.75609 74.56616,0 140.79846,26.75609 66.2323,26.75609 117.55136,73.68891 51.31906,46.93282 84.2159,110.97199 32.89684,64.03918 39.91483,137.72809 l 31.58096,346.51334 q 2.63175,30.70372 -18.42223,53.51219 -21.05397,22.808474 -51.75769,22.808474 z"
     id="path1"
     style="stroke-width:0.877249" />
</svg>
